<svg width="68" height="68" viewBox="0 0 68 68" fill="none" xmlns="http://www.w3.org/2000/svg">
<path fill-rule="evenodd" clip-rule="evenodd" d="M33.8785 67.757C52.5891 67.757 67.757 52.5891 67.757 33.8785C67.757 15.1679 52.5891 0 33.8785 0C15.1679 0 0 15.1679 0 33.8785C0 52.5891 15.1679 67.757 33.8785 67.757ZM23.0753 22.86C23.0753 28.8056 28.1421 33.8302 34.2381 33.8302L34.2748 33.8323C37.2162 33.8409 40.0406 32.6899 42.1273 30.6325C44.214 28.575 45.3923 25.7794 45.4031 22.86C45.4031 16.7067 40.5457 11.6821 34.2403 11.6821C28.1421 11.6821 23.0753 16.7089 23.0753 22.86ZM29.6936 22.8622C29.6936 20.2963 31.6573 18.1439 34.2381 18.1439C36.9269 18.1439 38.7892 20.2942 38.787 22.8622C38.787 25.4237 36.9269 27.3727 34.2403 27.3727C31.6573 27.3727 29.6936 25.4237 29.6936 22.8622ZM44.991 49.0089L38.6856 42.9606C41.0636 42.2431 43.338 41.32 45.2996 40.0884C46.7475 39.266 47.164 37.2185 46.2318 35.6785C45.3017 34.1407 43.3402 33.7317 41.6851 34.7576C39.4439 36.1151 36.8691 36.8332 34.2435 36.8332C31.618 36.8332 29.0432 36.1151 26.802 34.7576C25.1469 33.7317 23.2868 34.1407 22.2532 35.6785C21.4267 37.2185 21.7353 39.2681 23.2868 40.0884C25.3617 41.3127 27.5819 42.276 29.8964 42.9563L23.4875 49.0068C22.2467 50.339 22.2467 52.288 23.4875 53.5195C24.2125 54.132 25.039 54.4405 25.7619 54.4405C26.6941 54.4405 27.5228 54.1342 28.1421 53.5195L34.2403 47.3662L40.5457 53.5195C41.5793 54.8495 43.6488 54.8495 44.991 53.5195C46.2318 52.288 46.2318 50.339 44.991 49.0089Z" fill="white"/>
</svg>
