<svg width="21" height="21" viewBox="0 0 21 21" fill="none" xmlns="http://www.w3.org/2000/svg">
<path fill-rule="evenodd" clip-rule="evenodd" d="M2.21044 0.375C1.99781 0.375 1.80825 0.522375 1.73513 0.744L0.436875 4.68769C0.395883 4.8124 0.374997 4.94285 0.375 5.07413V6.64294C0.375 7.53 1.02244 8.25 1.82119 8.25C2.61994 8.25 3.26794 7.53 3.26794 6.64294C3.26794 7.53056 3.91537 8.25 4.71412 8.25C5.51287 8.25 6.16087 7.53 6.16087 6.64294C6.16087 7.53056 6.80831 8.25 7.60706 8.25C8.40581 8.25 9.05269 7.53113 9.05381 6.64406C9.05381 7.53113 9.70125 8.25 10.5 8.25C11.2987 8.25 11.9462 7.53 11.9462 6.64294C11.9462 7.53056 12.5942 8.25 13.3929 8.25C14.1917 8.25 14.8386 7.53113 14.8391 6.64406C14.8397 7.53113 15.4871 8.25 16.2859 8.25C17.0846 8.25 17.7321 7.53 17.7321 6.64294C17.7321 7.53056 18.3795 8.25 19.1788 8.25C19.9776 8.25 20.625 7.53 20.625 6.64294V5.07413C20.625 4.94285 20.6041 4.8124 20.5631 4.68769L19.2649 0.744563C19.1918 0.522375 19.0022 0.375 18.7896 0.375H2.21044V0.375Z" fill="#393939"/>
<path fill-rule="evenodd" clip-rule="evenodd" d="M2.625 8.94187V13.3125H1.21875C1.14416 13.3125 1.07262 13.3421 1.01988 13.3949C0.967132 13.4476 0.9375 13.5192 0.9375 13.5938V14.1562C0.9375 14.2308 0.967132 14.3024 1.01988 14.3551C1.07262 14.4079 1.14416 14.4375 1.21875 14.4375H19.7812C19.8558 14.4375 19.9274 14.4079 19.9801 14.3551C20.0329 14.3024 20.0625 14.2308 20.0625 14.1562V13.5938C20.0625 13.5192 20.0329 13.4476 19.9801 13.3949C19.9274 13.3421 19.8558 13.3125 19.7812 13.3125H18.375V8.94187C18.1395 8.84804 17.922 8.71426 17.7321 8.54644C17.5862 8.67505 17.4242 8.78398 17.25 8.87044V13.3125H3.75V8.87044C3.57584 8.78398 3.41377 8.67505 3.26794 8.54644C3.07894 8.71238 2.86294 8.84737 2.625 8.94187ZM17.25 7.84106C17.2978 7.79325 17.3428 7.74206 17.385 7.6875H17.25V7.84106ZM18.0791 7.6875C18.1642 7.79768 18.2637 7.89588 18.375 7.97944V7.6875H18.0791ZM2.625 7.97944C2.73687 7.89653 2.83648 7.79825 2.92088 7.6875H2.625V7.97944ZM3.615 7.6875H3.75V7.84106C3.70168 7.79289 3.65658 7.74159 3.615 7.6875V7.6875ZM1.78125 15.5625C1.70666 15.5625 1.63512 15.5921 1.58238 15.6449C1.52963 15.6976 1.5 15.7692 1.5 15.8438V20.0625C1.5 20.2117 1.55926 20.3548 1.66475 20.4602C1.77024 20.5657 1.91332 20.625 2.0625 20.625H18.9375C19.0867 20.625 19.2298 20.5657 19.3352 20.4602C19.4407 20.3548 19.5 20.2117 19.5 20.0625V15.8438C19.5 15.7692 19.4704 15.6976 19.4176 15.6449C19.3649 15.5921 19.2933 15.5625 19.2188 15.5625H1.78125Z" fill="#393939"/>
<path d="M6.84375 11.625H5.15625C5.00092 11.625 4.875 11.7509 4.875 11.9062V13.0312C4.875 13.1866 5.00092 13.3125 5.15625 13.3125H6.84375C6.99908 13.3125 7.125 13.1866 7.125 13.0312V11.9062C7.125 11.7509 6.99908 11.625 6.84375 11.625Z" fill="#393939"/>
<path d="M7.96875 12.1875H6.28125C6.12592 12.1875 6 12.3134 6 12.4688V13.0312C6 13.1866 6.12592 13.3125 6.28125 13.3125H7.96875C8.12408 13.3125 8.25 13.1866 8.25 13.0312V12.4688C8.25 12.3134 8.12408 12.1875 7.96875 12.1875Z" fill="#393939"/>
<path d="M9.65625 13.3125C10.1222 13.3125 10.5 12.9347 10.5 12.4687C10.5 12.0028 10.1222 11.625 9.65625 11.625C9.19026 11.625 8.8125 12.0028 8.8125 12.4687C8.8125 12.9347 9.19026 13.3125 9.65625 13.3125Z" fill="#393939"/>
</svg>
