<svg width="40" height="40" viewBox="0 0 40 40" fill="none" xmlns="http://www.w3.org/2000/svg">
<g clip-path="url(#clip0_47_42)">
<path d="M26 34C25.988 34.5327 26.0825 35.0624 26.2779 35.558C26.4734 36.0537 26.766 36.5053 27.1384 36.8863C27.5108 37.2674 27.9556 37.5702 28.4467 37.7769C28.9377 37.9837 29.4652 38.0903 29.998 38.0904C30.5308 38.0906 31.0583 37.9842 31.5494 37.7777C32.0406 37.5712 32.4855 37.2686 32.8582 36.8878C33.2308 36.5069 33.5235 36.0555 33.7193 35.5599C33.915 35.0644 34.0098 34.5347 33.998 34.002C33.9749 32.9569 33.5436 31.9623 32.7963 31.2313C32.0491 30.5002 31.0454 30.0907 30 30.0904C28.9546 30.0902 27.9507 30.4992 27.2031 31.2299C26.4555 31.9606 26.0236 32.9549 26 34ZM6 34C6 35.0609 6.42143 36.0783 7.17157 36.8284C7.92172 37.5786 8.93913 38 10 38C11.0609 38 12.0783 37.5786 12.8284 36.8284C13.5786 36.0783 14 35.0609 14 34C14 32.9391 13.5786 31.9217 12.8284 31.1716C12.0783 30.4214 11.0609 30 10 30C8.93913 30 7.92172 30.4214 7.17157 31.1716C6.42143 31.9217 6 32.9391 6 34ZM13.094 24.344L35.23 18.02C35.4464 17.9478 35.6359 17.8117 35.7734 17.6296C35.9109 17.4475 35.9899 17.2279 36 17V6H8V2.8C8 2.36 7.638 2 7.202 2H0.798C0.586336 2.00106 0.383672 2.08574 0.234189 2.2356C0.0847053 2.38546 0.000525217 2.58833 0 2.8L0 6H4L7.82 23.914L8 25.8V29.098C8 29.536 8.36 29.898 8.8 29.898H35.2C35.64 29.898 36 29.534 36 29.098V26H13.504C11.204 26 11.156 24.898 13.094 24.344Z" fill="#3CDE90"/>
</g>
<defs>
<clipPath id="clip0_47_42">
<rect width="40" height="40" fill="white"/>
</clipPath>
</defs>
</svg>
