<svg width="218" height="58" viewBox="0 0 218 58" fill="none" xmlns="http://www.w3.org/2000/svg">
<path d="M75.4886 28L76.9972 22.9886H85.6392L87.1477 28H94.8182L86.1761 1.81818H76.4602L67.8182 28H75.4886ZM78.608 17.6705L81.2159 9.02841H81.4205L84.0284 17.6705H78.608ZM111.312 10.4602H118.497C117.947 5.20597 113.179 1.46023 106.991 1.46023C99.9344 1.46023 94.2071 6.31818 94.2071 14.9602C94.2071 23.2443 99.3974 28.358 107.042 28.358C113.895 28.358 118.804 24.1648 118.804 17.0057V13.375H107.196V18.4375H111.951C111.888 20.7131 110.277 22.1705 107.093 22.1705C103.412 22.1705 101.52 19.4602 101.52 14.858C101.52 10.3196 103.565 7.64773 107.145 7.64773C109.369 7.64773 110.878 8.67045 111.312 10.4602ZM120.318 28H127.426V19.358H129.88L134.483 28H142.204L136.886 18.233C139.673 16.8906 141.335 14.3466 141.335 10.7159C141.335 5.14205 137.436 1.81818 131.619 1.81818H120.318V28ZM127.426 13.8352V7.49432H129.932C132.425 7.49432 133.92 8.46591 133.92 10.7159C133.92 12.9531 132.425 13.8352 129.932 13.8352H127.426ZM167.928 14.9091C167.928 6.16477 162.303 1.46023 155.196 1.46023C148.036 1.46023 142.463 6.16477 142.463 14.9091C142.463 23.6023 148.036 28.358 155.196 28.358C162.303 28.358 167.928 23.6534 167.928 14.9091ZM160.616 14.9091C160.616 19.6136 158.724 22.1705 155.196 22.1705C151.667 22.1705 149.775 19.6136 149.775 14.9091C149.775 10.2045 151.667 7.64773 155.196 7.64773C158.724 7.64773 160.616 10.2045 160.616 14.9091ZM68.6875 30.8182V57H75.642V41.7614H75.8466L81.6761 56.7955H85.8693L91.6989 41.8636H91.9034V57H98.858V30.8182H90.0114L83.9261 45.6477H83.6193L77.5341 30.8182H68.6875ZM107.228 57L108.736 51.9886H117.378L118.887 57H126.557L117.915 30.8182H108.199L99.5572 57H107.228ZM110.347 46.6705L112.955 38.0284H113.16L115.767 46.6705H110.347ZM127.279 57H134.387V48.358H136.841L141.444 57H149.165L143.847 47.233C146.634 45.8906 148.296 43.3466 148.296 39.7159C148.296 34.142 144.397 30.8182 138.58 30.8182H127.279V57ZM134.387 42.8352V36.4943H136.893C139.385 36.4943 140.881 37.4659 140.881 39.7159C140.881 41.9531 139.385 42.8352 136.893 42.8352H134.387ZM149.526 57H156.634V50.25L158.986 47.1818L164.867 57H173.355L164.304 42.4773L173.151 30.8182H164.867L156.992 41.4034H156.634V30.8182H149.526V57ZM173.46 57H192.278V51.2727H180.568V46.7727H191.358V41.0455H180.568V36.5455H192.329V30.8182H173.46V57ZM193.339 36.5455H201.214V57H208.219V36.5455H216.094V30.8182H193.339V36.5455Z" fill="#3CDE90"/>
<path d="M45.7559 28.2773C45.125 32.0254 44.3271 34.8457 43.3623 36.7383C43.251 37.2207 42.8242 38.2134 42.082 39.7163C41.3398 41.2192 40.6719 42.8613 40.0781 44.6426C39.4844 46.4238 39.1875 48.168 39.1875 49.875C39.1875 52.3613 38.3989 54.1704 36.8218 55.3022C35.2446 56.4341 32.4707 57 28.5 57C24.5293 57 21.7554 56.4341 20.1782 55.3022C18.6011 54.1704 17.8125 52.3613 17.8125 49.875C17.8125 48.168 17.5156 46.4238 16.9219 44.6426C16.3281 42.8613 15.6602 41.2192 14.918 39.7163C14.1758 38.2134 13.749 37.2207 13.6377 36.7383C12.6729 34.8457 11.875 32.0254 11.2441 28.2773C10.7988 28.3887 10.335 28.4536 9.85254 28.4722C9.37012 28.4907 8.82275 28.4814 8.21045 28.4443C7.59814 28.4072 7.07861 28.3701 6.65186 28.333C6.2251 28.2959 5.64062 28.2031 4.89844 28.0547C4.15625 27.9062 3.62744 27.8042 3.31201 27.7485C2.99658 27.6929 2.41211 27.5723 1.55859 27.3867C0.705078 27.2012 0.185547 27.0898 0 27.0527C0.816406 25.9395 1.43799 25.1323 1.86475 24.6313C2.2915 24.1304 2.89453 23.5737 3.67383 22.9614C4.45312 22.3491 5.31592 21.9316 6.26221 21.709C7.2085 21.4863 8.33105 21.375 9.62988 21.375C9.81543 21.375 10.1865 21.4307 10.7432 21.542C10.7803 20.4287 10.9473 19.4453 11.2441 18.5918C10.8359 17.2188 10.6504 15.8828 10.6875 14.584C10.6875 13.6191 10.6968 12.8677 10.7153 12.3296C10.7339 11.7915 10.8081 10.9844 10.938 9.9082C11.0679 8.83203 11.2812 7.9043 11.5781 7.125C11.875 6.3457 12.2739 5.48291 12.7749 4.53662C13.2759 3.59033 13.9531 2.73682 14.8066 1.97607C15.6602 1.21533 16.6621 0.556641 17.8125 0C16.4395 2.70898 15.7529 5.13965 15.7529 7.29199C15.7529 9.14746 16.0684 10.9473 16.6992 12.6914C19.5938 11.3555 23.5273 10.6875 28.5 10.6875C33.4727 10.6875 37.4062 11.3555 40.3008 12.6914C40.9316 10.9473 41.2471 9.14746 41.2471 7.29199C41.2471 5.13965 40.5605 2.70898 39.1875 0C40.3379 0.556641 41.3398 1.21533 42.1934 1.97607C43.0469 2.73682 43.7241 3.59033 44.2251 4.53662C44.7261 5.48291 45.125 6.3457 45.4219 7.125C45.7188 7.9043 45.9321 8.83203 46.062 9.9082C46.1919 10.9844 46.2661 11.7915 46.2847 12.3296C46.3032 12.8677 46.3125 13.6191 46.3125 14.584C46.3496 15.8457 46.1641 17.1816 45.7559 18.5918C46.0527 19.4453 46.2197 20.4287 46.2568 21.542C46.8135 21.4307 47.1846 21.375 47.3701 21.375C48.6689 21.375 49.7915 21.4863 50.7378 21.709C51.6841 21.9316 52.5469 22.3491 53.3262 22.9614C54.1055 23.5737 54.7085 24.1304 55.1353 24.6313C55.562 25.1323 56.1836 25.9395 57 27.0527C56.8145 27.0898 56.2949 27.2012 55.4414 27.3867C54.5879 27.5723 54.0034 27.6929 53.688 27.7485C53.3726 27.8042 52.8437 27.9062 52.1016 28.0547C51.3594 28.2031 50.7749 28.2959 50.3481 28.333C49.9214 28.3701 49.4019 28.4072 48.7896 28.4443C48.1772 28.4814 47.6299 28.4907 47.1475 28.4722C46.665 28.4536 46.2012 28.3887 45.7559 28.2773ZM28.5 17.8125C25.5684 17.8125 23.0542 18.3599 20.9575 19.4546C18.8608 20.5493 17.8125 21.876 17.8125 23.4346C17.8125 24.6592 18.1558 25.9766 18.8423 27.3867C19.5288 28.7969 20.5215 29.8359 21.8203 30.5039C22.2656 30.7266 22.6089 30.9492 22.8501 31.1719C23.0913 31.3945 23.4067 31.7935 23.7964 32.3687C24.186 32.9438 24.4736 33.8066 24.6592 34.957C24.8447 36.1074 24.9375 37.5176 24.9375 39.1875C24.9375 40.7832 24.752 42.1748 24.3809 43.3623C24.0098 44.5498 23.6016 45.4219 23.1562 45.9785C22.7109 46.5352 22.3027 47.2124 21.9316 48.0103C21.5605 48.8081 21.375 49.6709 21.375 50.5986C21.375 51.4521 22.1729 52.1387 23.7686 52.6582C25.3643 53.1777 26.9414 53.4375 28.5 53.4375C30.0586 53.4375 31.6357 53.1777 33.2314 52.6582C34.8271 52.1387 35.625 51.4521 35.625 50.5986C35.625 49.6709 35.4395 48.8081 35.0684 48.0103C34.6973 47.2124 34.2891 46.5352 33.8438 45.9785C33.3984 45.4219 32.9902 44.5498 32.6191 43.3623C32.248 42.1748 32.0625 40.7832 32.0625 39.1875C32.0625 37.5176 32.1646 36.1074 32.3687 34.957C32.5728 33.8066 32.8696 32.9346 33.2593 32.3408C33.6489 31.7471 33.9644 31.3481 34.2056 31.144C34.4468 30.9399 34.7715 30.7266 35.1797 30.5039C36.4414 29.8359 37.4248 28.7876 38.1299 27.3589C38.835 25.9302 39.1875 24.6221 39.1875 23.4346C39.1875 21.876 38.1392 20.5493 36.0425 19.4546C33.9458 18.3599 31.4316 17.8125 28.5 17.8125Z" fill="#FFC700"/>
</svg>
