<svg width="35" height="40" viewBox="0 0 35 40" fill="none" xmlns="http://www.w3.org/2000/svg">
<path d="M34.1467 28.6933C32.0042 26.372 29.4043 24.5195 26.5106 23.2524C23.6169 21.9854 20.4922 21.3313 17.3333 21.3313C14.1744 21.3313 11.0497 21.9854 8.15608 23.2524C5.26241 24.5195 2.66247 26.372 0.52 28.6933C0.189222 29.0591 0.00418971 29.5335 0 30.0267V38.0267C0.00701126 38.5525 0.220816 39.0543 0.595132 39.4237C0.969447 39.793 1.47416 40 2 40H32.6667C33.1971 40 33.7058 39.7893 34.0809 39.4142C34.4559 39.0391 34.6667 38.5304 34.6667 38V30C34.656 29.5161 34.4714 29.0522 34.1467 28.6933V28.6933Z" fill="#3CDE90"/>
<path d="M17.3333 18.6667C22.488 18.6667 26.6667 14.488 26.6667 9.33333C26.6667 4.17868 22.488 0 17.3333 0C12.1787 0 8 4.17868 8 9.33333C8 14.488 12.1787 18.6667 17.3333 18.6667Z" fill="#3CDE90"/>
</svg>
